/* XPM */
static char * circle_xpm[] = {
"20 20 2 1           ",
" 	        c #151515",
".	        c #a8a897",
"                    ",
"                    ",
"....................",
"....................",
"..                ..",
"..     ......     ..",
"..     ......     ..",
"..                ..",
".. ... ...... ... ..",
".. ... ...... ... ..",
".. ... ...... ... ..",
".. ... ...... ... ..",
"..                ..",
"..     ......     ..",
"..     ......     ..",
"..                ..",
"....................",
"....................",
"                    ",
"                    "};
