/* XPM */
static char * grid_xpm[] = {
"20 20 2 1           ",
" 	        c #151515",
".	        c #a8a897",
"                    ",
"                    ",
".........  .........",
".........  .........",
".........  .........",
".........  .........",
"                    ",
"                    ",
".........  .........",
".........  .........",
".........  .........",
".........  .........",
"                    ",
"                    ",
".........  .........",
".........  .........",
".........  .........",
".........  .........",
"                    ",
"                    "};
