#define max_width  18
#define max_height 18
static unsigned char max_bits[] = {
 0x00,0x00,0xfc,0x00,0x00,0xfc,0xff,0xff,0xff,0xff,0xff,0xff,
 0x41,0x08,0xfe,0x41,0x08,0xfe,0xe1,0x1f,0xfe,0x3d,0xf0,0xfe,
 0x25,0x90,0xfe,0x25,0x90,0xfe,0x25,0x90,0xfe,0x3d,0xf0,0xfe,
 0xe1,0x1f,0xfe,0x41,0x08,0xfe,0x41,0x08,0xfe,0xff,0xff,0xff,
 0x00,0x00,0xfc,0x00,0x00,0xfc};
