#define max_width  18
#define max_height 18
static unsigned char max_bits[] = {
 0x00,0x00,0xfc,0x00,0x00,0xfc,0xff,0xff,0xff,0xff,0xff,0xff,
 0x01,0x00,0xfe,0x01,0x00,0xfe,0x01,0x00,0xfe,0x01,0x00,0xfe,
 0x01,0x00,0xfe,0xff,0xff,0xff,0x41,0x08,0xfe,0x41,0x08,0xfe,
 0x41,0x08,0xfe,0x41,0x08,0xfe,0x41,0x08,0xfe,0xff,0xff,0xff,
 0x00,0x00,0xfc,0x00,0x00,0xfc};
